<svg xmlns="http://www.w3.org/2000/svg" width="180.729" height="65" viewBox="0 0 180.729 65">
  <g id="Group_226" data-name="Group 226" transform="translate(-1895.364 -1915.202)">
    <path id="Rectangle_316" data-name="Rectangle 316" d="M20,0H87.729a20,20,0,0,1,20,20V45a20,20,0,0,1-20,20H0a0,0,0,0,1,0,0V20A20,20,0,0,1,20,0Z" transform="translate(1968.364 1915.202)" fill="#e9e9eb"/>
    <g id="Group_225" data-name="Group 225" transform="translate(71.228 -72.798)">
      <path id="Path_28" data-name="Path 28" d="M32.522,17.543a10.711,10.711,0,0,1,.845,5,31.339,31.339,0,0,1-.9,6.25H11.683q-.8,4.318.569,6.924t5.36,2.608a9.314,9.314,0,0,0,6.463-2.463,10.891,10.891,0,0,0,2.513-3.308h4.691a13.152,13.152,0,0,1-1.975,3.48A16.589,16.589,0,0,1,26.3,39.178a14.346,14.346,0,0,1-5.984,2.861,17.9,17.9,0,0,1-4,.42,9.557,9.557,0,0,1-8.158-3.851Q5.3,34.751,6.783,27.816a20.472,20.472,0,0,1,6.061-11.1,15.142,15.142,0,0,1,10.594-4.262A11.255,11.255,0,0,1,29,13.874a7.793,7.793,0,0,1,3.521,3.67m-4.158,7.466a11.164,11.164,0,0,0-.289-4.953q-1.227-3.444-5.8-3.439a8.959,8.959,0,0,0-6.011,2.368,11.522,11.522,0,0,0-3.652,6.024Z" transform="translate(1915.86 1993.041)" fill="#08080a"/>
      <path id="Path_29" data-name="Path 29" d="M18.578,12.6h6.169l4.4,9.983L37.858,12.6l5.771.131L31.155,26.425l6.91,14.534H31.978l-4.8-10.643L18.1,40.959H12.065L25.117,26.425Z" transform="translate(1936.236 1994.541)" fill="#08080a"/>
    </g>
    <path id="Rectangle_84" data-name="Rectangle 84" d="M20,0H53A20,20,0,0,1,73,20V65a0,0,0,0,1,0,0H20A20,20,0,0,1,0,45V20A20,20,0,0,1,20,0Z" transform="translate(1895.364 1915.202)" fill="#2b9bfc"/>
    <path id="Path_4" data-name="Path 4" d="M5.018,12.6V31.992a8.36,8.36,0,0,0,.689,3.654q1.278,2.618,4.757,2.621a6.722,6.722,0,0,0,6.8-4.585,18.691,18.691,0,0,0,.982-6.735V12.6h4.906V41.809H18.517l.056-4.306a9.871,9.871,0,0,1-2.327,2.807A10.126,10.126,0,0,1,9.556,42.6q-6.13,0-8.351-4.171A12.592,12.592,0,0,1,0,32.457V12.6Z" transform="translate(1920.287 1920.102)" fill="#fff"/>
  </g>
</svg>
